<svg width="140" height="2" viewBox="0 0 140 2" fill="none" xmlns="http://www.w3.org/2000/svg">
<path d="M0 1.54102L0 0.0410156L5.38462 0.0410156V1.54102L0 1.54102Z" fill="#497C6E"/>
<path d="M8.97436 1.54102V0.0410156L14.359 0.0410156V1.54102L8.97436 1.54102Z" fill="#497C6E"/>
<path d="M17.9487 1.54102V0.0410156L23.3333 0.0410156V1.54102L17.9487 1.54102Z" fill="#497C6E"/>
<path d="M26.9231 1.54102V0.0410156L32.3077 0.0410156V1.54102L26.9231 1.54102Z" fill="#497C6E"/>
<path d="M35.8974 1.54102V0.0410156L41.2821 0.0410156V1.54102L35.8974 1.54102Z" fill="#497C6E"/>
<path d="M44.8718 1.54102V0.0410156L50.2564 0.0410156V1.54102L44.8718 1.54102Z" fill="#497C6E"/>
<path d="M53.8462 1.54102V0.0410156L59.2308 0.0410156V1.54102L53.8462 1.54102Z" fill="#497C6E"/>
<path d="M62.8205 1.54102V0.0410156L68.2051 0.0410156V1.54102L62.8205 1.54102Z" fill="#497C6E"/>
<path d="M71.7949 1.54102V0.0410156L77.1795 0.0410156V1.54102L71.7949 1.54102Z" fill="#497C6E"/>
<path d="M80.7692 1.54102V0.0410156L86.1538 0.0410156V1.54102L80.7692 1.54102Z" fill="#497C6E"/>
<path d="M89.7436 1.54102V0.0410156L95.1282 0.0410156V1.54102L89.7436 1.54102Z" fill="#497C6E"/>
<path d="M98.7179 1.54102V0.0410156L104.103 0.0410156V1.54102L98.7179 1.54102Z" fill="#497C6E"/>
<path d="M107.692 1.54102V0.0410156L113.077 0.0410156V1.54102L107.692 1.54102Z" fill="#497C6E"/>
<path d="M116.667 1.54102V0.0410156L122.051 0.0410156V1.54102L116.667 1.54102Z" fill="#497C6E"/>
<path d="M125.641 1.54102V0.0410156L131.026 0.0410156V1.54102L125.641 1.54102Z" fill="#497C6E"/>
<path d="M134.615 1.54102V0.0410156L140 0.0410156V1.54102L134.615 1.54102Z" fill="#497C6E"/>
</svg>
